<svg xmlns="http://www.w3.org/2000/svg" viewBox="0 0 64 64" role="img" aria-label="WekangTradingJournal icon">
  <defs>
    <linearGradient id="g" x1="0%" y1="0%" x2="100%" y2="100%">
      <stop offset="0%" stop-color="#0ea5e9"/>
      <stop offset="100%" stop-color="#22c55e"/>
    </linearGradient>
  </defs>
  <rect x="4" y="14" width="56" height="36" rx="8" fill="url(#g)" opacity="0.18"/>
  <circle cx="20" cy="44" r="9" fill="#0f172a"/>
  <circle cx="44" cy="44" r="9" fill="#0f172a"/>
  <path d="M14 38h22l6-10h12" fill="none" stroke="#0f172a" stroke-width="3" stroke-linecap="round" stroke-linejoin="round"/>
  <path d="M22 28h10l4 6" fill="none" stroke="#0f172a" stroke-width="3" stroke-linecap="round" stroke-linejoin="round"/>
  <path d="M32 18c0 3 3 6 6 6" fill="none" stroke="#0ea5e9" stroke-width="3" stroke-linecap="round"/>
  <path d="M48 20c0 4-4 8-8 8" fill="none" stroke="#22c55e" stroke-width="3" stroke-linecap="round"/>
  <path d="M40 32c2 2 3 4 3 6 0 4-3 7-7 7-2 0-4-1-6-3" fill="none" stroke="#0f172a" stroke-width="3" stroke-linecap="round" stroke-linejoin="round"/>
</svg>
